<svg width="270" height="268" viewBox="0 0 270 268" fill="none" xmlns="http://www.w3.org/2000/svg">
<path fill-rule="evenodd" clip-rule="evenodd" d="M252.03 110.128C261.947 110.117 269.987 102.067 269.998 92.1375V69.9535C270.031 68.9215 269.64 67.922 268.924 67.1833C268.197 66.4337 267.21 66.0208 266.179 66.0208C265.137 66.0208 264.15 66.4337 263.434 67.1833C262.707 67.922 262.316 68.9215 262.349 69.9535V92.1375C262.338 97.841 257.726 102.458 252.03 102.469H207.643V78.362C207.621 67.1287 198.529 58.025 187.31 58.0141H173.421V21.5869C173.508 17.1109 177.208 13.5369 181.689 13.6128H186.42C188.492 13.5585 190.141 11.8637 190.141 9.78875C190.141 7.71377 188.492 6.01892 186.42 5.95385H181.689C172.987 5.88866 165.859 12.8741 165.761 21.5869V57.9919H138.798V3.8349C138.798 1.71646 137.084 0 134.968 0C132.852 0 131.138 1.71649 131.138 3.8349V57.9919H106.757V21.5869C106.66 12.8741 99.5419 5.88877 90.84 5.95385H81.3568C80.326 5.93212 79.3278 6.32321 78.59 7.04024C77.8413 7.75724 77.429 8.75672 77.429 9.78877C77.429 10.8208 77.8413 11.8094 78.59 12.5373C79.3278 13.2543 80.326 13.6454 81.3568 13.6128H90.8292C95.3104 13.5368 99.0103 17.1001 99.0972 21.5869V57.9919H76.2573C65.038 58.0136 55.9456 67.1173 55.9239 78.3506V102.457H17.9698C12.2734 102.447 7.66214 97.8294 7.65131 92.115V69.9527C7.65131 67.8451 5.93696 66.1287 3.82118 66.1287C1.70537 66.1287 0.00188355 67.8451 0.00188355 69.9527V92.1367C0.00188355 102.066 8.04185 110.116 17.9701 110.127H55.9353V145.303H22.7338C21.703 145.27 20.7048 145.662 19.9561 146.379C19.2183 147.106 18.7951 148.095 18.7951 149.127C18.7951 150.17 19.2183 151.159 19.9561 151.876C20.7048 152.603 21.703 152.995 22.7338 152.962H55.9242V180.534H17.9701C8.04213 180.545 0.00188355 188.595 0.00188355 198.536V220.709C-0.030668 221.752 0.359953 222.751 1.07606 223.49C1.80304 224.24 2.79041 224.653 3.82118 224.653C4.86281 224.653 5.85019 224.24 6.5663 223.49C7.29327 222.751 7.68386 221.752 7.65131 220.709V198.536C7.65131 192.832 12.2736 188.204 17.9698 188.204H55.935V189.562C55.9567 200.796 65.0383 209.889 76.2575 209.91H93.0538V246.315C92.967 250.791 89.267 254.365 84.7967 254.289H75.3134C74.2827 254.257 73.2736 254.648 72.5357 255.365C71.7979 256.093 71.3748 257.081 71.3748 258.113C71.3748 259.145 71.7979 260.145 72.5357 260.862C73.2736 261.579 74.2827 261.97 75.3134 261.948H84.7858C93.4877 262.014 100.605 255.028 100.703 246.315V209.91H125.084V264.067C125.051 265.099 125.442 266.099 126.158 266.838C126.885 267.587 127.872 268 128.903 268C129.945 268 130.932 267.587 131.648 266.838C132.375 266.099 132.766 265.099 132.733 264.067V209.91H159.707V246.315C159.804 255.028 166.922 262.013 175.624 261.948H180.366C181.407 261.97 182.406 261.579 183.143 260.862C183.892 260.145 184.304 259.145 184.304 258.113C184.304 257.081 183.892 256.093 183.143 255.365C182.406 254.648 181.407 254.257 180.366 254.289H175.635C171.154 254.365 167.465 250.802 167.367 246.315V209.91H187.31C198.529 209.889 207.622 200.785 207.643 189.552V188.194H252.03C257.727 188.194 262.349 192.833 262.349 198.536V220.709C262.403 222.784 264.107 224.435 266.179 224.435C268.241 224.435 269.944 222.784 269.998 220.709V198.536C269.988 188.607 261.948 180.557 252.03 180.546H207.643V152.962H247.269C249.342 152.897 250.991 151.202 250.991 149.127C250.991 147.052 249.342 145.358 247.269 145.303H207.643V110.128L252.03 110.128ZM199.993 189.543C199.982 196.561 194.307 202.243 187.309 202.243H76.2578C69.2595 202.232 63.5847 196.561 63.5739 189.554V78.3534C63.5847 71.3463 69.2486 65.6753 76.247 65.6644H187.309C194.308 65.6644 199.982 71.3463 199.993 78.3534V189.554L199.993 189.543ZM163.7 88.6716C171.046 88.6825 177.003 94.6466 177.003 102.002V165.904C177.003 173.258 171.046 179.223 163.7 179.234H99.8691C92.5127 179.234 86.5558 173.269 86.5449 165.904V102.002C86.5558 94.636 92.5125 88.6825 99.8691 88.6716H163.7Z" fill="#5BA9B2"/>
</svg>
