<svg width="100" height="100" viewBox="0 0 376 420" fill="none" xmlns="http://www.w3.org/2000/svg">
<path d="M343.899 157.441C353.3 157.441 360.963 149.141 360.963 138.908V112.485C369.191 109.733 375.2 101.388 375.2 91.564C375.2 79.4894 366.155 69.6659 355.037 69.6659C343.92 69.6659 334.875 79.4894 334.875 91.564C334.875 101.387 340.884 109.733 349.112 112.485V138.908C349.112 142.024 346.788 144.548 343.919 144.548H300.474V120.967C300.474 112.962 295.973 106.095 289.021 103.48C278.992 99.6824 268.587 95.248 257.95 90.3819V36.7163C257.95 33.601 260.274 31.0769 263.143 31.0769H332.131C334.727 41.1053 343.207 48.4728 353.257 48.4728C365.359 48.4728 375.199 37.7854 375.199 24.6414C375.199 11.498 365.359 0.810059 353.257 0.810059C343.207 0.810059 334.727 8.17753 332.131 18.2059H263.143C253.742 18.2059 246.079 26.506 246.079 36.7387V84.8555C229.496 76.942 212.369 68.1192 194.97 59.0687C194.489 58.8186 194.007 58.6139 193.525 58.4093V41.9233C201.335 39.1945 206.988 31.2359 206.988 21.8671C206.988 10.2471 198.278 0.810175 187.6 0.810175C176.901 0.810175 168.212 10.2698 168.212 21.8671C168.212 31.2359 173.865 39.1948 181.675 41.9233V58.4093C181.193 58.614 180.711 58.8186 180.23 59.0687C162.831 68.1192 145.704 76.9193 129.121 84.8555V36.7387C129.121 26.5287 121.479 18.2059 112.057 18.2059H43.069C40.4728 8.17753 31.9932 0.810059 21.9432 0.810059C9.84146 0.810059 0.000536726 11.4974 0.000536726 24.6414C0.000536726 37.7848 9.84093 48.4728 21.9432 48.4728C31.9932 48.4728 40.4727 41.1053 43.069 31.0769H112.057C114.926 31.0769 117.25 33.601 117.25 36.7163V90.3819C106.593 95.2482 96.2076 99.6827 86.1786 103.48C79.2272 106.118 74.7259 112.985 74.7259 120.967V144.548H31.2806C28.4121 144.548 26.0881 142.024 26.0881 138.908V112.485C34.3167 109.733 40.3253 101.388 40.3253 91.564C40.3253 79.4894 31.2803 69.6659 20.1626 69.6659C9.04496 69.6659 0 79.4894 0 91.564C0 101.387 6.00908 109.733 14.2372 112.485V138.908C14.2372 149.118 21.8794 157.441 31.3012 157.441H74.7465V171.244H44.8689C41.6027 171.244 38.9435 174.132 38.9435 177.679C38.9435 181.227 41.6025 184.115 44.8689 184.115H74.7465V197.918H39.4462C36.9128 188.981 29.229 182.455 20.1835 182.455C9.06587 182.455 0.0209016 192.279 0.0209016 204.353C0.0209016 216.428 9.06587 226.251 20.1835 226.251C29.2285 226.251 36.9126 219.725 39.4462 210.789H74.7465V224.592H44.8689C41.6027 224.592 38.9435 227.48 38.9435 231.027C38.9435 234.575 41.6025 237.463 44.8689 237.463H75.4165C75.9818 242.215 76.924 246.809 78.2222 251.266H31.3223C21.9215 251.266 14.2583 259.566 14.2583 269.798V296.222C6.02965 298.974 0.0211163 307.319 0.0211163 317.143C0.0211163 329.217 9.06609 339.041 20.1838 339.041C31.3014 339.041 40.3464 329.217 40.3464 317.143C40.3464 307.319 34.3373 298.974 26.1092 296.222V269.798C26.1092 266.683 28.4332 264.159 31.3017 264.159H83.1429C83.8338 265.592 84.5457 267.001 85.2994 268.389C92.6903 281.896 104.059 294.107 117.25 305.341V352.207L103.661 366.988C100.855 365.373 97.6311 364.441 94.2393 364.441C83.1217 364.441 74.0767 374.265 74.0767 386.339C74.0767 398.414 83.1217 408.237 94.2393 408.237C105.357 408.237 114.402 398.414 114.402 386.339C114.402 382.633 113.544 379.153 112.057 376.106L127.383 359.461C128.493 358.256 129.121 356.618 129.121 354.913V314.869C142.814 325.261 157.68 334.834 171.708 343.884C174.116 345.431 176.502 346.977 178.847 348.501C179.748 349.092 180.69 349.569 181.653 349.956V367.147C173.843 369.876 168.19 377.834 168.19 387.203C168.19 398.823 176.9 408.26 187.578 408.26C198.277 408.26 206.966 398.8 206.966 387.203C206.966 377.834 201.313 369.875 193.504 367.147V349.956C194.467 349.569 195.409 349.092 196.309 348.501C198.654 346.977 201.041 345.454 203.449 343.884C217.498 334.834 232.342 325.261 246.056 314.869V354.913C246.056 356.618 246.685 358.256 247.794 359.461L263.142 376.129C261.655 379.176 260.797 382.678 260.797 386.362C260.797 398.436 269.842 408.26 280.959 408.26C292.077 408.26 301.122 398.436 301.122 386.362C301.122 374.287 292.077 364.464 280.959 364.464C277.546 364.464 274.343 365.396 271.537 367.011L257.928 352.23V305.363C271.139 294.13 282.487 281.942 289.878 268.411C290.653 267.001 291.365 265.592 292.035 264.182H343.876C346.744 264.182 349.068 266.706 349.068 269.821V296.245C340.84 298.996 334.831 307.341 334.831 317.165C334.831 329.24 343.876 339.064 354.994 339.064C366.112 339.064 375.156 329.24 375.156 317.165C375.156 307.342 369.147 298.996 360.919 296.245V269.821C360.919 259.611 353.277 251.288 343.855 251.288H296.955C298.254 246.809 299.196 242.215 299.761 237.485H330.309C333.575 237.485 336.234 234.598 336.234 231.05C336.234 227.503 333.575 224.614 330.309 224.614H300.431V210.812H335.731C338.265 219.748 345.949 226.274 354.994 226.274C366.112 226.274 375.157 216.451 375.157 204.376C375.157 192.301 366.112 182.478 354.994 182.478C345.949 182.478 338.265 189.004 335.731 197.941H300.431V184.138H330.309C333.575 184.138 336.234 181.25 336.234 177.702C336.234 174.155 333.575 171.267 330.309 171.267H300.431V157.464H343.876L343.899 157.441ZM346.725 91.5669C346.725 86.5869 350.452 82.5619 355.017 82.5619C359.602 82.5619 363.308 86.6095 363.308 91.5669C363.308 96.5468 359.581 100.572 355.017 100.572C350.431 100.572 346.725 96.5243 346.725 91.5669ZM353.237 13.6833C358.806 13.6833 363.328 18.5951 363.328 24.6437C363.328 30.6927 358.806 35.6041 353.237 35.6041C347.667 35.6041 343.145 30.6924 343.145 24.6437C343.145 18.5948 347.667 13.6833 353.237 13.6833ZM21.9416 35.5814C16.3721 35.5814 11.8498 30.6697 11.8498 24.621C11.8498 18.5724 16.3723 13.6606 21.9416 13.6606C27.5112 13.6606 32.0334 18.5724 32.0334 24.621C32.0334 30.6697 27.5109 35.5814 21.9416 35.5814ZM20.1619 100.571C15.5766 100.571 11.8706 96.5231 11.8706 91.5657C11.8706 86.5857 15.5974 82.5607 20.1619 82.5607C24.7472 82.5607 28.4533 86.6083 28.4533 91.5657C28.4533 96.5457 24.7264 100.571 20.1619 100.571ZM20.1619 213.406C15.5766 213.406 11.8706 209.358 11.8706 204.4C11.8706 199.421 15.5974 195.395 20.1619 195.395C24.7472 195.395 28.4533 199.443 28.4533 204.4C28.4533 209.38 24.7264 213.406 20.1619 213.406ZM28.4533 317.211C28.4533 322.191 24.7264 326.216 20.1619 326.216C15.5766 326.216 11.8706 322.169 11.8706 317.211C11.8706 312.231 15.5974 308.206 20.1619 308.206C24.7472 308.206 28.4533 312.254 28.4533 317.211ZM94.2202 395.392C89.6349 395.392 85.9289 391.344 85.9289 386.387C85.9289 381.407 89.6557 377.382 94.2202 377.382C98.8055 377.382 102.512 381.429 102.512 386.387C102.512 391.367 98.7847 395.392 94.2202 395.392ZM280.94 377.359C285.526 377.359 289.232 381.407 289.232 386.364C289.232 391.344 285.505 395.369 280.94 395.369C276.355 395.369 272.649 391.322 272.649 386.364C272.649 381.384 276.376 377.359 280.94 377.359ZM180.044 21.8507C180.044 17.3482 183.415 13.6647 187.581 13.6647C191.727 13.6647 195.119 17.3258 195.119 21.8507C195.119 26.3531 191.748 30.0366 187.581 30.0366C183.436 30.0366 180.044 26.3755 180.044 21.8507ZM195.098 387.232C195.098 391.735 191.727 395.418 187.561 395.418C183.415 395.418 180.024 391.757 180.024 387.232C180.024 382.73 183.395 379.046 187.561 379.046C191.707 379.046 195.098 382.707 195.098 387.232ZM288.566 226.214C288.566 239.267 285.655 250.932 279.646 261.893C264.488 289.635 228.831 312.602 197.381 332.86C194.952 334.429 192.565 335.953 190.221 337.476C188.483 338.613 186.64 338.613 184.903 337.476C182.558 335.953 180.171 334.407 177.742 332.86C146.294 312.599 110.635 289.632 95.4772 261.893C89.4891 250.932 86.5577 239.267 86.5577 226.214V121C86.5577 118.498 87.8558 116.497 90.0542 115.678C119.723 104.468 152.048 88.0045 185.317 70.6994C186.092 70.3128 186.825 70.1082 187.557 70.1082C188.29 70.1082 189.044 70.3128 189.798 70.6994C223.067 88.0045 255.393 104.468 285.061 115.678C287.238 116.497 288.557 118.498 288.557 121L288.566 226.214ZM355.003 308.213C359.588 308.213 363.294 312.261 363.294 317.218C363.294 322.198 359.567 326.223 355.003 326.223C350.417 326.223 346.711 322.176 346.711 317.218C346.711 312.238 350.438 308.213 355.003 308.213ZM355.003 195.379C359.588 195.379 363.294 199.426 363.294 204.384C363.294 209.364 359.567 213.389 355.003 213.389C350.417 213.389 346.711 209.341 346.711 204.384C346.711 199.404 350.438 195.379 355.003 195.379ZM270.915 126.047C243.697 115.086 217.171 101.534 190.119 87.4576C188.507 86.6162 186.622 86.6162 184.989 87.4576C157.938 101.534 131.431 115.086 104.193 126.047C101.869 126.979 100.319 129.389 100.319 132.096V226.215C100.319 236.63 102.539 245.543 107.292 254.253C121.006 279.334 159.237 303.757 184.529 319.9C185.45 320.491 186.497 320.787 187.544 320.787C188.591 320.787 189.617 320.491 190.559 319.9C215.852 303.732 254.085 279.309 267.796 254.253C272.549 245.543 274.769 236.63 274.769 226.215V132.096C274.769 129.412 273.219 127.002 270.895 126.047H270.915ZM262.917 226.214C262.917 234.218 261.221 241.04 257.599 247.68C245.958 268.964 210.532 292.181 187.565 306.895C164.576 292.183 129.152 268.965 117.532 247.68C113.91 241.04 112.214 234.241 112.214 226.214V136.554C137.674 126.048 162.422 113.496 187.57 100.421C212.716 113.496 237.464 126.071 262.926 136.554L262.917 226.214ZM155.53 156.405V163.977H153.478C143.617 163.977 135.619 172.686 135.619 183.374V240.518C135.619 251.228 143.638 259.915 153.478 259.915H221.63C231.491 259.915 239.49 251.206 239.49 240.518V183.374C239.49 172.664 231.471 163.977 221.63 163.977H219.578V156.405C219.578 137.235 205.215 121.613 187.544 121.613C169.893 121.613 155.509 137.212 155.509 156.405H155.53ZM221.629 176.87C224.937 176.87 227.638 179.804 227.638 183.397V240.541C227.638 244.134 224.937 247.067 221.629 247.067H153.477C150.169 247.067 147.468 244.134 147.468 240.541V183.397C147.468 179.804 150.169 176.87 153.477 176.87H221.629ZM207.726 156.405V163.977H167.401V156.405C167.401 144.33 176.446 134.507 187.564 134.507C198.681 134.507 207.726 144.33 207.726 156.405ZM175.776 202.453C175.776 195.381 181.052 189.65 187.564 189.65C194.075 189.65 199.351 195.381 199.351 202.453C199.351 207.183 196.985 211.321 193.468 213.549V227.898C193.468 231.422 190.809 234.31 187.563 234.31C184.318 234.31 181.659 231.423 181.659 227.898V213.549C178.141 211.344 175.776 207.205 175.776 202.453Z" fill="#9B4343"/>
</svg>
