<svg width="1821" height="396" viewBox="0 0 1821 396" fill="none" xmlns="http://www.w3.org/2000/svg">
<path fill-rule="evenodd" clip-rule="evenodd" d="M395.748 316.568V395.71H79.1495C48.2396 364.804 30.9095 347.475 0 316.568V0H79.1498V316.568H395.748Z" fill="white"/>
<path fill-rule="evenodd" clip-rule="evenodd" d="M1662.15 0V395.71H1583V79.1419H1424.7V0H1662.15Z" fill="white"/>
<path fill-rule="evenodd" clip-rule="evenodd" d="M1820.45 0V79.1419H1662.15C1693.06 48.235 1710.39 30.9069 1741.3 0H1820.45Z" fill="white"/>
<path fill-rule="evenodd" clip-rule="evenodd" d="M949.795 79.151V0.00878906L1345.54 0.00913298V79.151H949.795Z" fill="white"/>
<path fill-rule="evenodd" clip-rule="evenodd" d="M1028.95 237.426V316.569H1424.69C1393.78 347.476 1376.45 364.804 1345.54 395.711H949.804V237.426C980.714 206.52 998.043 189.191 1028.95 158.284H1424.69V237.426H1028.95Z" fill="white"/>
<path fill-rule="evenodd" clip-rule="evenodd" d="M870.65 316.564V395.706H474.902V316.563L870.65 316.564Z" fill="white"/>
<path fill-rule="evenodd" clip-rule="evenodd" d="M395.739 158.288V79.1462H870.641V0.00390625H316.589V158.288C347.499 189.195 364.829 206.523 395.739 237.43H870.65V158.288H395.739Z" fill="white"/>
</svg>
