<svg width="303" height="161" viewBox="0 0 303 161" fill="none" xmlns="http://www.w3.org/2000/svg">
<path d="M225.936 161C216.98 160.996 208.179 158.664 200.402 154.232L168.54 136.067C163.469 133.189 157.735 131.675 151.901 131.675C146.067 131.675 140.333 133.189 135.262 136.067L103.396 154.236C95.5695 158.698 86.7054 161.03 77.6912 161C68.677 160.969 59.829 158.577 52.0325 154.062C44.2361 149.548 37.7649 143.069 33.2664 135.275C28.768 127.481 26.4001 118.644 26.3999 109.65V51.35C26.4153 37.7359 31.8423 24.6837 41.4903 15.057C51.1384 5.43035 64.2195 0.0153407 77.8639 0H225.936C239.58 0.0153407 252.661 5.43035 262.309 15.057C271.958 24.6837 277.385 37.7359 277.4 51.35V109.65C277.385 123.264 271.958 136.316 262.309 145.943C252.661 155.57 239.58 160.985 225.936 161ZM151.9 113.8C160.853 113.791 169.655 116.113 177.434 120.535L209.299 138.704C214.399 141.612 220.176 143.132 226.05 143.113C231.924 143.093 237.69 141.534 242.77 138.592C247.851 135.65 252.067 131.428 254.998 126.349C257.93 121.269 259.472 115.511 259.471 109.65V51.35C259.462 42.4786 255.925 33.9733 249.638 27.7002C243.351 21.4271 234.827 17.8986 225.936 17.8889H77.8639C68.9727 17.8986 60.4485 21.4271 54.1616 27.7002C47.8746 33.9733 44.3382 42.4786 44.3285 51.35V109.65C44.3284 115.511 45.8713 121.269 48.8026 126.348C51.734 131.427 55.951 135.649 61.0316 138.591C66.1122 141.533 71.8781 143.091 77.7522 143.111C83.6262 143.13 89.4023 141.61 94.5023 138.701L126.367 120.535C134.146 116.112 142.947 113.791 151.9 113.8Z" fill="#A781AB"/>
<path d="M9.3999 111C7.01295 111 4.72377 110.055 3.03594 108.373C1.34811 106.69 0.399902 104.409 0.399902 102.029V58.9706C0.399902 56.5914 1.34811 54.3097 3.03594 52.6274C4.72377 50.9451 7.01295 50 9.3999 50C11.7869 50 14.076 50.9451 15.7639 52.6274C17.4517 54.3097 18.3999 56.5914 18.3999 58.9706V102.029C18.3999 104.409 17.4517 106.69 15.7639 108.373C14.076 110.055 11.7869 111 9.3999 111Z" fill="#A781AB"/>
<path d="M293.4 111C291.013 111 288.724 110.055 287.036 108.373C285.348 106.69 284.4 104.409 284.4 102.029V58.9706C284.4 56.5914 285.348 54.3097 287.036 52.6274C288.724 50.9451 291.013 50 293.4 50C295.787 50 298.076 50.9451 299.764 52.6274C301.452 54.3097 302.4 56.5914 302.4 58.9706V102.029C302.4 104.409 301.452 106.69 299.764 108.373C298.076 110.055 295.787 111 293.4 111Z" fill="#A781AB"/>
</svg>
