<svg width="317" height="89" viewBox="0 0 317 89" fill="none" xmlns="http://www.w3.org/2000/svg">
    <path
        d="M234.414 19.9482C215.611 19.9482 196.636 27.5825 196.636 44.6216C196.636 52.6167 200.779 59.1572 208.551 63.5438C215.108 67.22 224.093 69.2611 233.838 69.2611C240.04 69.2611 246.071 68.5394 252.494 66.566L248.963 58.5144C244.784 59.4278 241.143 59.721 238.005 59.721C222.745 59.721 213.968 54.2293 213.968 44.6216C213.968 35.0251 223.174 29.2965 237.969 29.2965C240.898 29.2965 243.68 29.5559 247.247 30.2776L252.555 22.6207C246.107 20.185 240.187 19.9482 234.402 19.9482M156.738 19.9482C140.264 19.9482 122.54 27.6501 122.54 44.5539C122.54 61.4689 140.264 69.295 156.738 69.295C173.212 69.295 190.949 61.5591 190.949 44.5539C190.949 27.5486 173.212 19.9482 156.738 19.9482ZM156.738 60.6119C146.785 60.6119 139.872 53.9925 139.872 44.5539C139.872 35.104 146.651 28.4621 156.738 28.4621C166.839 28.4621 173.605 34.9462 173.605 44.5539C173.605 54.1616 166.655 60.6119 156.738 60.6119ZM283.346 19.9482C275.783 19.9482 268.575 20.8841 260.633 22.9139V68.5056H277.658V29.1612C279.546 28.9018 281.323 28.7665 282.966 28.7665C286.814 28.7665 299.342 29.5559 299.342 39.8515C299.342 47.2829 291.999 50.632 284.682 50.632C284.351 50.632 283.566 50.5982 282.966 50.5756L279.583 57.1838C282.855 57.5108 284.608 57.6123 286.361 57.6123C301.438 57.6123 316.674 51.8499 316.674 38.9945C316.674 27.4133 303.007 19.9482 283.358 19.9482"
        fill="#6F9570" />
    <path
        d="M89.8984 63.4765C94.7279 59.6649 104.289 52.3577 100.881 35.296C100.844 35.1043 100.538 35.1156 100.526 35.3073C100.035 42.0507 96.1497 46.3133 94.3111 51.6247C94.2621 51.7825 94.0169 51.7487 94.0169 51.5796C94.0782 46.4261 89.4327 42.4454 88.7217 39.3669C88.6727 39.1865 88.3908 39.1865 88.354 39.3669C86.5767 49.6174 91.7983 56.53 89.6165 63.3073C89.5675 63.4652 89.7636 63.5892 89.8984 63.4765Z"
        fill="#6F9570" />
    <path
        d="M98.0018 60.0936C92.2163 66.4875 91.3583 65.9913 85.107 71.6184C84.9844 71.7425 84.776 71.5959 84.8741 71.4493C89.0294 65.1569 86.6024 60.0824 85.536 57.9511C85.4502 57.7932 85.205 57.8383 85.1928 58.0074C84.8496 64.4126 79.7137 78.61 55.493 87.293C54.586 87.6088 54.157 88.15 54.2305 88.5334C54.2305 88.5334 54.2305 89.0522 55.5298 88.9958C61.8546 88.7252 88.1223 83.5491 98.2592 60.2402C98.3328 60.0824 98.1121 59.9696 98.0018 60.0936Z"
        fill="#6F9570" />
    <path
        d="M50.1126 15.8325C47.6611 19.9373 44.6825 27.7746 44.1554 30.2554H41.704C41.5936 30.2554 41.5078 30.3456 41.5201 30.4359C41.7652 33.1986 47.5753 37.168 49.8552 38.6227C49.9777 38.7017 50.1371 38.6227 50.1371 38.4761L50.4558 15.9228C50.4558 15.7423 50.2106 15.6747 50.1126 15.8325Z"
        fill="#6F9570" />
    <path
        d="M51.4726 15.8325C53.9363 19.9373 56.9026 27.7746 57.4297 30.2554H59.8812C59.9915 30.2554 60.0773 30.3456 60.0773 30.4359C59.8321 33.1986 54.0098 37.168 51.73 38.6227C51.6196 38.7017 51.4603 38.6227 51.4603 38.4761L51.1416 15.9228C51.1416 15.7423 51.3868 15.6747 51.4848 15.8325"
        fill="#6F9570" />
    <path
        d="M20.0808 36.8747C23.5619 40.3028 30.7203 45.3322 33.1227 46.5501L32.3628 48.704C32.3383 48.8055 32.3873 48.907 32.4976 48.9295C35.4149 49.561 41.3107 45.6931 43.517 44.1369C43.6274 44.058 43.5906 43.9001 43.4558 43.855L20.2892 36.6041C20.1176 36.559 19.9582 36.7507 20.0931 36.8747"
        fill="#6F9570" />
    <path
        d="M20.5077 35.6796C25.4965 34.8 34.5057 34.6083 37.2269 34.9241L37.9868 32.7702C38.0113 32.6687 38.1216 32.6236 38.232 32.6574C41.0021 33.7174 43.2943 40.055 44.091 42.502C44.1278 42.626 43.993 42.7388 43.8581 42.705L20.4954 36.0066C20.3116 35.9615 20.3238 35.7134 20.5077 35.6796Z"
        fill="#6F9570" />
    <path
        d="M32.509 69.7123C37.1178 67.7276 44.5213 63.0027 46.5193 61.2773L48.505 62.608C48.5908 62.6644 48.7133 62.6418 48.7746 62.5629C50.3313 60.1948 48.1495 53.8347 47.2424 51.4215C47.1934 51.2862 47.0095 51.2749 46.9237 51.3877L32.3006 69.4642C32.178 69.5995 32.3374 69.7912 32.509 69.7123Z"
        fill="#6F9570" />
    <path
        d="M31.4063 68.9795C32.0437 64.3335 34.63 56.3721 35.7945 54.083L33.7965 52.7523C33.7107 52.6959 33.6984 52.5832 33.7597 52.5042C35.7209 50.4068 42.9528 50.3504 45.723 50.4068C45.8701 50.4068 45.9436 50.5646 45.8578 50.6774L31.7373 69.0922C31.6392 69.2388 31.3818 69.1599 31.4063 68.9907"
        fill="#6F9570" />
    <path
        d="M70.212 68.9795C69.5746 64.3222 66.9883 56.3721 65.8361 54.0717L67.8218 52.741C67.9076 52.6847 67.9199 52.5719 67.8586 52.493C65.8974 50.3955 58.6655 50.3391 55.883 50.3955C55.736 50.3955 55.6624 50.5534 55.7482 50.6661L69.8688 69.0922C69.9791 69.2276 70.2365 69.1486 70.1997 68.9795"
        fill="#6F9570" />
    <path
        d="M69.1104 69.7124C64.5139 67.7277 57.1104 62.9914 55.1002 61.2661L53.1145 62.5968C53.0287 62.6531 52.9061 62.6419 52.8448 62.5517C51.2881 60.1836 53.4699 53.8235 54.377 51.4103C54.426 51.2862 54.6099 51.2637 54.6957 51.3765L69.3311 69.453C69.4414 69.5996 69.282 69.7913 69.1104 69.7124Z"
        fill="#6F9570" />
    <path
        d="M81.0998 35.6793C76.1111 34.7885 67.1018 34.608 64.3807 34.9125L63.6207 32.7586C63.5962 32.6684 63.4736 32.612 63.3756 32.6459C60.6054 33.7172 58.3132 40.0434 57.5165 42.4904C57.4797 42.6258 57.6146 42.7385 57.7494 42.6934L81.1121 36.0063C81.296 35.95 81.2837 35.7131 81.0998 35.6793Z"
        fill="#6F9570" />
    <path
        d="M81.5148 36.8747C78.0459 40.3028 70.8753 45.3322 68.4851 46.5501L69.2451 48.704C69.2696 48.8055 69.2206 48.907 69.1102 48.9295C66.193 49.561 60.2971 45.6931 58.0908 44.1369C57.9805 44.058 58.0173 43.9001 58.1521 43.855L81.3187 36.6041C81.4903 36.559 81.6373 36.7507 81.5148 36.8747Z"
        fill="#6F9570" />
    <path
        d="M82.4584 12.5735C80.9508 11.3105 78.7444 10.6903 76.4891 10.4873C76.2929 10.476 76.0968 10.4197 75.9252 10.3407C71.9661 8.37858 67.7372 6.70962 63.3491 5.79621C63.3368 5.79621 63.2878 5.78493 63.2878 5.78493C63.1775 5.76238 63.0794 5.81877 63.0549 5.92025C63.0426 6.01047 63.1039 6.10068 63.202 6.13451C63.202 6.13451 63.251 6.13451 63.2755 6.14579C67.9088 7.19452 72.5299 9.14539 75.2143 11.1977C75.3981 11.3331 75.533 11.5135 75.631 11.7165C76.391 13.3854 77.2368 14.9303 78.7444 16.2046C80.2031 17.4338 82.2623 17.6367 83.2797 16.6444C84.2971 15.652 84.1009 13.9605 82.4707 12.5735"
        fill="#6F9570" />
    <path
        d="M91.639 27.6957L87.2018 22.4858C83.8555 18.5728 82.3234 19.7005 79.7616 19.8245C79.308 19.8471 78.8668 19.7231 78.5113 19.4637C73.927 16.0581 68.7789 12.8555 61.9638 11.5249C61.9392 11.5249 61.8902 11.5136 61.8902 11.5136C61.8044 11.4911 61.7063 11.5474 61.6941 11.6264C61.6696 11.7053 61.7309 11.7843 61.8044 11.7955C61.8044 11.7955 62.1966 11.897 62.3928 11.9421C67.9086 13.2953 72.6277 15.7424 76.8198 19.6667C83.831 27.4476 88.3908 26.444 91.4061 27.9325C91.5777 28.0227 91.7616 27.831 91.639 27.6844"
        fill="#6F9570" />
    <path
        d="M93.332 26.9964C92.6946 23.7374 93.6262 18.0765 89.1767 13.4982C89.0174 13.3065 88.76 13.0697 88.5026 12.8329C82.3738 6.75474 74.1981 2.30045 64.6006 0.417238C63.8161 0.270641 63.0316 0.135321 62.2226 0.0112767C62.2104 0.0112767 62.1736 0 62.1736 0C62.0878 0 62.002 0.0451061 61.9897 0.124044C61.9775 0.202978 62.0388 0.281915 62.1246 0.293191C62.1246 0.293191 62.2104 0.304471 62.2471 0.315747C63.0071 0.439792 63.7671 0.586389 64.5148 0.732985C73.3646 2.58236 80.8539 6.45027 86.7375 12.8893C87.0685 13.2614 87.1665 13.7576 86.9949 14.2086C86.3085 15.9227 85.7814 17.2759 87.5342 19.644C88.0368 20.3432 91.6037 25.2034 93.0011 27.1092C93.1114 27.2558 93.3565 27.1656 93.3197 26.9964"
        fill="#6F9570" />
    <path
        d="M94.7781 35.3185C94.7781 35.4763 94.5452 35.5214 94.4839 35.3748C94.0304 34.3148 93.111 32.5782 91.5053 31.1686C89.4828 29.3756 87.2642 29.2403 85.585 27.7969C85.4501 27.6729 85.2295 27.7856 85.2663 27.9548C87.3623 37.1002 93.5768 37.4836 94.4103 42.6483C94.4348 42.8175 94.6923 42.84 94.7535 42.6709C96.4451 37.9121 103.751 30.7063 94.5819 19.7792C94.4594 19.6326 94.202 19.7566 94.2632 19.937C96.3348 25.6994 94.6432 30.7514 94.7781 35.3185Z"
        fill="#6F9570" />
    <path
        d="M11.7086 63.4766C6.87918 59.665 -2.68163 52.3577 0.713683 35.2961C0.750456 35.1044 1.05689 35.1157 1.0814 35.3074C1.55944 42.0508 5.44506 46.3134 7.28367 51.6248C7.3327 51.7826 7.57785 51.7488 7.57785 51.5796C7.51656 46.4262 12.1621 42.4455 12.8731 39.367C12.9344 39.1866 13.2163 39.1866 13.2408 39.367C15.0304 49.6175 9.79645 56.5301 11.9783 63.3074C12.0273 63.4653 11.8434 63.5893 11.7086 63.4766Z"
        fill="#6F9570" />
    <path
        d="M3.60506 60.0936C9.39057 66.4875 10.2363 65.9913 16.4876 71.6184C16.6225 71.7425 16.8308 71.5959 16.7328 71.4493C12.5652 65.1569 14.9922 60.0824 16.0709 57.9511C16.1444 57.7932 16.3896 57.8383 16.4018 58.0074C16.7573 64.4126 21.8932 78.61 46.1016 87.293C47.0087 87.6088 47.4377 88.15 47.3641 88.5334C47.3641 88.5334 47.3641 89.0522 46.0648 88.9958C39.7523 88.7252 13.4723 83.5491 3.33539 60.2402C3.27411 60.0824 3.49474 59.9696 3.60506 60.0936Z"
        fill="#6F9570" />
    <path
        d="M19.1362 12.5735C20.6439 11.3105 22.8625 10.6903 25.1056 10.4873C25.314 10.476 25.4979 10.4197 25.6695 10.3407C29.6286 8.37858 33.8697 6.70962 38.2456 5.79621C38.2579 5.79621 38.3069 5.78493 38.3069 5.78493C38.4049 5.76238 38.5153 5.81877 38.5398 5.92025C38.552 6.01047 38.4907 6.10068 38.3927 6.13451C38.3927 6.13451 38.3437 6.13451 38.3191 6.14579C33.6858 7.19452 29.0648 9.14539 26.3804 11.1977C26.1965 11.3331 26.0617 11.5135 25.9636 11.7165C25.2037 13.3854 24.3579 14.9303 22.8502 16.2046C21.3916 17.4338 19.3324 17.6367 18.315 16.6444C17.2976 15.652 17.4937 13.9605 19.124 12.5735"
        fill="#6F9570" />
    <path
        d="M9.96832 27.6957L14.4055 22.4858C17.7518 18.5728 19.284 19.7005 21.8335 19.8245C22.287 19.8471 22.7283 19.7231 23.0838 19.4637C27.6681 16.0581 32.8162 12.8555 39.6313 11.5249C39.6558 11.5249 39.7171 11.5136 39.7171 11.5136C39.8029 11.4911 39.8887 11.5474 39.901 11.6264C39.9255 11.7053 39.8765 11.7843 39.7907 11.7955C39.7907 11.7955 39.3984 11.897 39.2023 11.9421C33.6865 13.2953 28.9674 15.7424 24.7753 19.6667C17.7641 27.4476 13.2165 26.444 10.189 27.9325C10.0296 28.0227 9.84574 27.831 9.96832 27.6844"
        fill="#6F9570" />
    <path
        d="M8.26257 26.9964C8.89996 23.7374 7.96839 18.0765 12.4178 13.4982C12.5894 13.3065 12.8346 13.0697 13.092 12.8329C19.233 6.75474 27.3964 2.30045 37.0063 0.417238C37.7908 0.270641 38.5752 0.135321 39.372 0.0112767C39.3965 0.0112767 39.4333 0 39.4333 0C39.5191 0 39.5926 0.0451061 39.6049 0.124044C39.6171 0.202978 39.5558 0.281915 39.47 0.293191C39.47 0.293191 39.3965 0.304471 39.3597 0.315747C38.5875 0.439792 37.8275 0.586389 37.0798 0.732985C28.2299 2.58236 20.7407 6.45027 14.8693 12.8893C14.5384 13.2614 14.4403 13.7576 14.6119 14.2086C15.2983 15.9227 15.8254 17.2759 14.0726 19.644C13.5578 20.3432 10.0031 25.2034 8.60578 27.1092C8.49547 27.2558 8.23806 27.1656 8.27483 26.9964"
        fill="#6F9570" />
    <path
        d="M7.33337 19.937C7.40691 19.7566 7.14951 19.6326 7.01468 19.7792C-2.15389 30.7063 5.15154 37.9234 6.84307 42.6821C6.90436 42.84 7.16176 42.8175 7.18628 42.6483C8.03204 37.4836 14.2466 37.1002 16.3303 27.9548C16.3671 27.7856 16.1465 27.6729 16.0116 27.7969C14.3324 29.2403 12.126 29.3644 10.0913 31.1686C8.48557 32.5782 7.57852 34.3148 7.11274 35.3748C7.05145 35.5214 6.81856 35.4763 6.81856 35.3185C6.95339 30.7514 5.26186 25.6994 7.33337 19.937Z"
        fill="#6F9570" />
</svg>