<svg width="192" height="208" viewBox="0 0 192 208" fill="none" xmlns="http://www.w3.org/2000/svg">
<path fill-rule="evenodd" clip-rule="evenodd" d="M47.3091 33.4234C44.5296 35.2452 42.3208 37.7699 40.7529 40.7465C40.7529 40.7465 40.6815 40.7393 40.6103 40.7393H37.0468C34.2674 40.7393 31.5588 41.8654 29.5633 43.8593C27.5678 45.8604 26.4992 48.5716 26.4992 51.3975C26.4992 58.5412 26.4992 69.515 26.4992 76.6588C26.4992 79.4847 27.5678 82.1887 29.5633 84.1898C31.5588 86.1909 34.2674 87.3098 37.0468 87.3098C39.0423 87.3098 40.6816 87.3098 40.6816 87.3098L40.7529 87.195C42.8197 91.3694 46.3824 94.6687 50.7298 96.4044L56.3603 110.972C58.6409 116.839 62.062 121.996 66.4094 126.191C66.4094 126.242 66.4094 126.299 66.4094 126.349V147.113C66.4094 150.398 64.1288 153.246 60.9929 153.999C54.365 155.548 44.6724 157.836 35.1224 160.103C14.6684 164.93 0.200684 183.277 0.200684 204.407C0.200684 204.206 0.200753 204.041 0.272022 203.912C0.200753 204.07 0.200684 204.234 0.200684 204.407C0.200684 206.322 1.69718 207.9 3.62143 207.993L3.76411 208L3.90679 207.986C4.61947 207.892 7.32754 207.354 7.32754 204.407C7.32754 186.605 19.5144 171.148 36.6901 167.089C46.3114 164.822 56.004 162.534 62.632 160.978C68.9749 159.471 73.5363 153.726 73.5363 147.113V131.757C80.0217 135.824 87.7186 138.105 95.7007 138.105C103.754 138.105 111.38 135.824 117.936 131.757V147.113C117.936 153.726 122.427 159.471 128.841 160.978C135.397 162.534 145.09 164.822 154.711 167.089C171.958 171.148 184.074 186.605 184.074 204.407V204.643C184.145 205.712 184.573 206.451 185.143 206.946C185.713 207.555 186.568 207.95 187.495 207.993L187.637 208L187.85 207.986C188.492 207.892 191.201 207.354 191.201 204.407C191.201 183.277 176.804 164.93 156.35 160.103C146.729 157.836 137.036 155.548 130.48 153.999C127.273 153.246 125.063 150.398 125.063 147.113V126.349C125.063 126.299 125.063 126.242 125.063 126.191C129.339 121.996 132.832 116.839 135.112 110.972L140.671 96.4044C145.018 94.683 148.582 91.4268 150.648 87.3026L154.426 87.3098C157.205 87.3098 159.914 86.1909 161.909 84.1898C163.834 82.1887 164.973 79.4847 164.973 76.6588C164.973 69.515 164.973 58.5412 164.973 51.3975C164.973 48.5716 163.834 45.8604 161.909 43.8593C159.914 41.8654 157.205 40.7393 154.426 40.7393C152.644 40.7393 151.148 40.7393 150.862 40.7393C150.791 40.7393 150.72 40.7465 150.648 40.7465C149.152 37.7699 146.872 35.2452 144.092 33.4306C144.092 33.323 144.092 33.2154 144.021 33.1079C144.021 33.0361 143.949 32.656 143.807 32.0248C139.673 13.312 123.21 0 104.11 0C98.6222 0 92.8496 0 87.2906 0C68.2619 0 51.7993 13.312 47.5944 32.0248L47.3804 33.115C47.3804 33.2083 47.3803 33.3159 47.3091 33.4234ZM58.9259 97.7385L62.9887 108.375C68.1913 121.974 81.2332 130.932 95.7007 130.932C110.239 130.932 123.21 121.974 128.484 108.375L132.547 97.7385H58.9259ZM145.66 49.4968V78.5594C145.66 85.1868 140.314 90.5661 133.686 90.5661H57.7149C51.1582 90.5661 45.8127 85.1868 45.8127 78.5594C45.8127 69.6154 45.8127 58.4337 45.8127 49.4968C45.8127 42.8623 51.1582 37.483 57.7149 37.483H133.686C140.314 37.483 145.66 42.8623 145.66 49.4968ZM38.7572 47.9117H37.0468C36.1203 47.9117 35.2645 48.2847 34.6231 48.9374C33.9817 49.5901 33.6261 50.4723 33.6261 51.3975C33.6261 58.5412 33.6261 69.515 33.6261 76.6588C33.6261 77.5768 33.9817 78.4662 34.6231 79.1189C35.2645 79.7716 36.1203 80.1374 37.0468 80.1374H38.7572C38.6859 79.6138 38.6859 79.0902 38.6859 78.5594C38.6859 69.6154 38.6859 58.4337 38.6859 49.4968C38.6859 48.9661 38.6859 48.4353 38.7572 47.9117ZM152.716 47.9117C152.716 48.4353 152.787 48.9661 152.787 49.4968V78.5594C152.787 79.0902 152.716 79.6138 152.716 80.1374H154.426C155.281 80.1374 156.207 79.7716 156.849 79.1189C157.49 78.4662 157.847 77.5768 157.847 76.6588C157.847 69.515 157.847 58.5412 157.847 51.3975C157.847 50.4723 157.49 49.5901 156.849 48.9374C156.207 48.2847 155.281 47.9117 154.426 47.9117H152.716ZM87.576 52.2439H103.897C105.821 52.2439 107.46 50.6372 107.46 48.6577C107.46 46.6781 105.821 45.0714 103.897 45.0714H87.576C85.5804 45.0714 84.0125 46.6781 84.0125 48.6577C84.0125 50.6372 85.5804 52.2439 87.576 52.2439ZM135.968 30.4541C131.549 16.683 118.791 7.17241 104.11 7.17241C98.6222 7.17241 92.8496 7.17241 87.2906 7.17241C72.6806 7.17241 59.8524 16.683 55.4338 30.4541C56.2177 30.3608 56.9309 30.3106 57.7149 30.3106H133.686C134.47 30.3106 135.255 30.3608 135.968 30.4541Z" fill="#A781AB"/>
</svg>
