<svg xmlns="http://www.w3.org/2000/svg" version="1.1" viewBox="-5.0 -10.0 110.0 135.0">
 <path d="m92.133 41.434c3.5703-0.003906 6.4648-2.8984 6.4688-6.4688v-7.9766c0.011719-0.37109-0.12891-0.73047-0.38672-0.99609-0.26172-0.26953-0.61719-0.41797-0.98828-0.41797-0.375 0-0.73047 0.14844-0.98828 0.41797-0.26172 0.26562-0.40234 0.625-0.39062 0.99609v7.9766c-0.003906 2.0508-1.6641 3.7109-3.7148 3.7148h-15.98v-8.668c-0.007813-4.0391-3.2812-7.3125-7.3203-7.3164h-5v-13.098c0.03125-1.6094 1.3633-2.8945 2.9766-2.8672h1.7031c0.74609-0.019531 1.3398-0.62891 1.3398-1.375 0-0.74609-0.59375-1.3555-1.3398-1.3789h-1.7031c-3.1328-0.023437-5.6992 2.4883-5.7344 5.6211v13.09h-9.707v-19.473c0-0.76172-0.61719-1.3789-1.3789-1.3789s-1.3789 0.61719-1.3789 1.3789v19.473h-8.7773v-13.09c-0.035156-3.1328-2.5977-5.6445-5.7305-5.6211h-3.4141c-0.37109-0.007812-0.73047 0.13281-0.99609 0.39063-0.26953 0.25781-0.41797 0.61719-0.41797 0.98828 0 0.37109 0.14844 0.72656 0.41797 0.98828 0.26562 0.25781 0.625 0.39844 0.99609 0.38672h3.4102c1.6133-0.027344 2.9453 1.2539 2.9766 2.8672v13.09h-8.2227c-4.0391 0.007812-7.3125 3.2812-7.3203 7.3203v8.668h-13.664c-2.0508-0.003906-3.7109-1.6641-3.7148-3.7188v-7.9688c0-0.75781-0.61719-1.375-1.3789-1.375-0.76172 0-1.375 0.61719-1.375 1.375v7.9766c0 3.5703 2.8945 6.4648 6.4688 6.4688h13.668v12.648h-11.953c-0.37109-0.011719-0.73047 0.12891-1 0.38672-0.26562 0.26172-0.41797 0.61719-0.41797 0.98828 0 0.375 0.15234 0.73047 0.41797 0.98828 0.26953 0.26172 0.62891 0.40234 1 0.39063h11.949v9.9141h-13.664c-3.5742 0.003906-6.4688 2.8984-6.4688 6.4727v7.9727c-0.011719 0.375 0.12891 0.73438 0.38672 1 0.26172 0.26953 0.61719 0.41797 0.98828 0.41797 0.375 0 0.73047-0.14844 0.98828-0.41797 0.26172-0.26562 0.40234-0.625 0.39062-1v-7.9727c0-2.0508 1.6641-3.7148 3.7148-3.7148h13.668v0.48828c0.007813 4.0391 3.2773 7.3086 7.3164 7.3164h6.0469v13.09c-0.03125 1.6094-1.3633 2.8945-2.9727 2.8672h-3.4141c-0.37109-0.011719-0.73438 0.12891-1 0.38672-0.26562 0.26172-0.41797 0.61719-0.41797 0.98828 0 0.37109 0.15234 0.73047 0.41797 0.98828 0.26562 0.25781 0.62891 0.39844 1 0.39063h3.4102c3.1328 0.023437 5.6953-2.4883 5.7305-5.6211v-13.09h8.7773v19.473c-0.011719 0.37109 0.12891 0.73047 0.38672 0.99609 0.26172 0.26953 0.61719 0.41797 0.98828 0.41797 0.375 0 0.73047-0.14844 0.98828-0.41797 0.26172-0.26562 0.40234-0.625 0.39062-0.99609v-19.473h9.7109v13.09c0.035157 3.1328 2.5977 5.6445 5.7305 5.6211h1.707c0.375 0.007812 0.73438-0.13281 1-0.39063 0.26953-0.25781 0.41797-0.61719 0.41797-0.98828 0-0.37109-0.14844-0.72656-0.41797-0.98828-0.26562-0.25781-0.625-0.39844-1-0.38672h-1.7031c-1.6133 0.027344-2.9414-1.2539-2.9766-2.8672v-13.09h7.1797c4.0391-0.007812 7.3125-3.2812 7.3203-7.3203v-0.48828h15.98c2.0508 0 3.7148 1.668 3.7148 3.7188v7.9727c0.019532 0.74609 0.63281 1.3398 1.3789 1.3398 0.74219 0 1.3555-0.59375 1.375-1.3398v-7.9727c-0.003906-3.5703-2.8984-6.4648-6.4688-6.4688h-15.98v-9.918h14.266c0.74609-0.023438 1.3398-0.63281 1.3398-1.3789 0-0.74609-0.59375-1.3555-1.3398-1.375h-14.266v-12.648zm-18.734 28.555c-0.003907 2.5234-2.0469 4.5664-4.5664 4.5664h-39.98c-2.5195-0.003907-4.5625-2.043-4.5664-4.5625v-39.984c0.003906-2.5195 2.043-4.5586 4.5625-4.5625h39.984c2.5195 0 4.5625 2.043 4.5664 4.5625v39.984zm-13.066-36.27c2.6445 0.003906 4.7891 2.1484 4.7891 4.793v22.977c0 2.6445-2.1445 4.7891-4.7891 4.793h-22.98c-2.6484 0-4.793-2.1445-4.7969-4.793v-22.977c0.003906-2.6484 2.1484-4.7891 4.7969-4.793z" fill-rule="evenodd"/>
<text x="0.0" y="117.5" font-size="5.0" font-weight="bold" font-family="Arbeit Regular, Helvetica, Arial-Unicode, Arial, Sans-serif" fill="#000000">Created by Andi wiyanto</text><text x="0.0" y="122.5" font-size="5.0" font-weight="bold" font-family="Arbeit Regular, Helvetica, Arial-Unicode, Arial, Sans-serif" fill="#000000">from Noun Project</text></svg>